Hyeon-jeong's sister is missing and she fears for the worst. Via her sister's cellphone, Hyeon-jeong learns that her sister stayed in a countryside village. She goes to the village to find her sister and stops at the local police station for help. Because of the little evidence she has, the police refuse to offer help.

Refusing to give up hope, Hyeon-jeong navigates the mystery of her sister's disappearance on her own. As she gets closer to the truth, Hyeon-jeong is forced to comes face-to-face with the psychopath who abducted her sister.

Based on a true story.



Directed by: Kim Seong-hong
Cast:
Moon Seong-geun as Pan-gon
Choo Ja-hyeon as Hyeon-jeong
Jeon Se-hong as Hyeon-ah
Oh Seong-soo as Officer Kim
Nam Moon-cheol as Deok-goo
Hwang Eun-jeong as Mi-ja




================
Language: Korean
================


==============================
Subtitles: English Hard Subbed
==============================




MEDIA INFO:


Codec ID : XVID
Codec ID/Hint : XviD
Duration : 1h 38mn
Bit rate : 1 199 Kbps
Width : 800 pixels
Height : 432 pixels
Display aspect ratio : 1.852
Frame rate : 23.976 fps
Resolution : 24 bits
Colorimetry : 4:2:0
Scan type : Progressive
Bits/(Pixel*Frame) : 0.145
Stream size : 845 MiB (85%)
Writing library : XviD 1.1.2 (UTC 2006-11-01)

Audio
ID : 1
Format : MPEG Audio
Format version : Version 1
Format profile : Layer 3
Format settings, Mode : Joint stereo / MS Stereo
Codec ID : 55
Codec ID/Hint : MP3
Duration : 1h 38mn
Bit rate mode : Constant
Bit rate : 192 Kbps
Channel(s) : 2 channels
Sampling rate : 44.1 KHz
Resolution : 16 bits
Video delay : 42ms
Stream size : 135 MiB (14%)
Alignment : Aligned on interleaves
Interleave, duration : 26 ms (0.63 video frame)
Interleave, preload duration : 809 ms
Writing library : LAME3.98.2








================================== 
http://thepiratebay.org/user/hiest
==================================








Screenshots:
 
http://leetleech.org/images/50430369194948021911.jpg
 
http://leetleech.org/images/43879179992813325770.jpg
 
http://leetleech.org/images/48482607458725720771.jpg
 
http://leetleech.org/images/38345440060121915763.jpg
 
http://leetleech.org/images/22306421757754654876.jpg
 
http://leetleech.org/images/22527523668754337770.jpg
 
http://leetleech.org/images/39113211502034398475.jpg
 
http://leetleech.org/images/14914974643827966027.jpg